<svg width="250" height="250" viewBox="0 0 250 250" fill="none" xmlns="http://www.w3.org/2000/svg">
<g clip-path="url(#clip0_2002_7542)">
<g clip-path="url(#clip1_2002_7542)" filter="url(#filter0_d_2002_7542)">
<path d="M264.888 77.4215C274.014 79.6063 279.313 88.2403 277.128 97.3662C276.047 101.88 274.587 105.26 272.601 108.04C270.616 110.82 268.085 113.029 264.824 115.177C261.555 117.329 257.574 119.407 252.689 121.939C247.91 124.418 242.284 127.324 235.667 131.14C231.496 124.741 227.797 119.603 224.658 115.229C221.45 110.759 218.842 107.103 216.903 103.704C214.967 100.312 213.71 97.1972 213.199 93.8191C212.687 90.4408 212.916 86.7664 213.997 82.2524C216.182 73.1266 224.816 67.8281 233.941 70.0128C240.368 71.5513 244.854 76.5866 246.806 82.7757L247.056 83.5707L247.64 82.9753C252.182 78.3411 258.462 75.8831 264.888 77.4215Z" fill="#FF0707" stroke="black"/>
</g>
<g clip-path="url(#clip2_2002_7542)">
<g filter="url(#filter1_d_2002_7542)">
<path d="M74.6969 230.041C72.7038 223.721 68.1034 218.53 61.4719 216.943C52.0772 214.694 43.1736 220.159 40.9251 229.553C36.5603 247.79 45.8463 252.934 62.9252 279.224C90.0564 263.515 100.665 263.133 105.03 244.896C107.278 235.502 101.814 226.598 92.4189 224.349C85.7874 222.762 79.3353 225.308 74.6969 230.041Z" fill="#FF0707"/>
<path d="M92.3026 224.836C101.429 227.02 106.728 235.654 104.543 244.78C103.463 249.294 102.003 252.673 100.017 255.454C98.0319 258.234 95.5017 260.443 92.2403 262.591C88.9717 264.743 84.9904 266.821 80.1061 269.354C75.3268 271.833 69.701 274.739 63.0846 278.556C58.9133 272.158 55.2137 267.019 52.0745 262.645C48.8665 258.175 46.2583 254.52 44.3184 251.121C42.3826 247.73 41.1258 244.614 40.6141 241.236C40.1025 237.858 40.331 234.184 41.4114 229.67C43.5957 220.544 52.2293 215.245 61.3553 217.429C67.7817 218.967 72.2687 224.002 74.2205 230.191L74.4711 230.986L75.0544 230.391C79.5968 225.756 85.8763 223.298 92.3026 224.836Z" stroke="black"/>
</g>
</g>
<g clip-path="url(#clip3_2002_7542)">
<g filter="url(#filter2_d_2002_7542)">
<path d="M-3.71771 82.6254C-5.71043 76.3055 -10.3105 71.1142 -16.942 69.5266C-26.3365 67.2775 -35.2404 72.7417 -37.4895 82.1362C-41.8553 100.373 -32.5697 105.517 -15.4923 131.808C11.6398 116.101 22.2484 115.719 26.6143 97.4828C28.8634 88.0883 23.3992 79.1844 14.0047 76.9353C7.37326 75.3477 0.920988 77.893 -3.71771 82.6254Z" fill="#FF0707"/>
<path d="M13.8883 77.4215C23.0142 79.6063 28.3126 88.2403 26.1279 97.3662C25.0473 101.88 23.5872 105.26 21.6014 108.04C19.6157 110.82 17.0853 113.029 13.8238 115.177C10.5551 117.329 6.57361 119.407 1.68919 121.939C-3.09024 124.418 -8.71622 127.324 -15.3329 131.14C-19.5037 124.741 -23.2031 119.603 -26.342 115.229C-29.5498 110.759 -32.1577 107.103 -34.0974 103.704C-36.033 100.312 -37.2897 97.1972 -37.8011 93.8191C-38.3125 90.4408 -38.0838 86.7664 -37.0032 82.2524C-34.8183 73.1266 -26.1844 67.8281 -17.0585 70.0128C-10.6322 71.5513 -6.14553 76.5866 -4.19406 82.7757L-3.94357 83.5707L-3.3602 82.9753C1.18242 78.3411 7.46213 75.8831 13.8883 77.4215Z" stroke="black"/>
</g>
</g>
<g clip-path="url(#clip4_2002_7542)">
<g filter="url(#filter3_d_2002_7542)">
<path d="M74.6969 -19.9593C72.7038 -26.2792 68.1034 -31.4702 61.4719 -33.0574C52.0772 -35.3059 43.1736 -29.8412 40.9251 -20.4466C36.5603 -2.20993 45.8463 2.93398 62.9252 29.2244C90.0564 13.5153 100.665 13.1329 105.03 -5.10376C107.278 -14.4984 101.814 -23.402 92.4189 -25.6505C85.7874 -27.2377 79.3353 -24.692 74.6969 -19.9593Z" fill="#FF0707"/>
<path d="M92.3026 -25.1643C101.429 -22.98 106.728 -14.3463 104.543 -5.22032C103.463 -0.706273 102.003 2.67343 100.017 5.45396C98.0319 8.23425 95.5017 10.4431 92.2403 12.5907C88.9717 14.743 84.9904 16.8213 80.1061 19.3544C75.3268 21.833 69.701 24.7393 63.0846 28.5562C58.9133 22.1576 55.2137 17.019 52.0745 12.6453C48.8665 8.17548 46.2583 4.51986 44.3184 1.12104C42.3826 -2.27049 41.1258 -5.38561 40.6141 -8.76366C40.1025 -12.1419 40.331 -15.8163 41.4114 -20.3304C43.5957 -29.4563 52.2293 -34.7553 61.3553 -32.5712C67.7817 -31.0331 72.2687 -25.9981 74.2205 -19.8091L74.4711 -19.0141L75.0544 -19.6095C79.5968 -24.244 85.8763 -26.7023 92.3026 -25.1643Z" stroke="black"/>
</g>
</g>
</g>
<defs>
<filter id="filter0_d_2002_7542" x="194" y="58" width="97.0391" height="97.0391" filterUnits="userSpaceOnUse" color-interpolation-filters="sRGB">
<feFlood flood-opacity="0" result="BackgroundImageFix"/>
<feColorMatrix in="SourceAlpha" type="matrix" values="0 0 0 0 0 0 0 0 0 0 0 0 0 0 0 0 0 0 127 0" result="hardAlpha"/>
<feOffset dy="4"/>
<feGaussianBlur stdDeviation="2"/>
<feColorMatrix type="matrix" values="0 0 0 0 0 0 0 0 0 0 0 0 0 0 0 0 0 0 0.3 0"/>
<feBlend mode="normal" in2="BackgroundImageFix" result="effect1_dropShadow_2002_7542"/>
<feBlend mode="normal" in="SourceGraphic" in2="effect1_dropShadow_2002_7542" result="shape"/>
</filter>
<filter id="filter1_d_2002_7542" x="35.853" y="216.438" width="73.6807" height="70.7861" filterUnits="userSpaceOnUse" color-interpolation-filters="sRGB">
<feFlood flood-opacity="0" result="BackgroundImageFix"/>
<feColorMatrix in="SourceAlpha" type="matrix" values="0 0 0 0 0 0 0 0 0 0 0 0 0 0 0 0 0 0 127 0" result="hardAlpha"/>
<feOffset dy="4"/>
<feGaussianBlur stdDeviation="2"/>
<feComposite in2="hardAlpha" operator="out"/>
<feColorMatrix type="matrix" values="0 0 0 0 0 0 0 0 0 0 0 0 0 0 0 0 0 0 0.3 0"/>
<feBlend mode="normal" in2="BackgroundImageFix" result="effect1_dropShadow_2002_7542"/>
<feBlend mode="normal" in="SourceGraphic" in2="effect1_dropShadow_2002_7542" result="shape"/>
</filter>
<filter id="filter2_d_2002_7542" x="-42.562" y="69.0225" width="73.6807" height="70.7861" filterUnits="userSpaceOnUse" color-interpolation-filters="sRGB">
<feFlood flood-opacity="0" result="BackgroundImageFix"/>
<feColorMatrix in="SourceAlpha" type="matrix" values="0 0 0 0 0 0 0 0 0 0 0 0 0 0 0 0 0 0 127 0" result="hardAlpha"/>
<feOffset dy="4"/>
<feGaussianBlur stdDeviation="2"/>
<feComposite in2="hardAlpha" operator="out"/>
<feColorMatrix type="matrix" values="0 0 0 0 0 0 0 0 0 0 0 0 0 0 0 0 0 0 0.3 0"/>
<feBlend mode="normal" in2="BackgroundImageFix" result="effect1_dropShadow_2002_7542"/>
<feBlend mode="normal" in="SourceGraphic" in2="effect1_dropShadow_2002_7542" result="shape"/>
</filter>
<filter id="filter3_d_2002_7542" x="35.853" y="-33.5615" width="73.6807" height="70.7861" filterUnits="userSpaceOnUse" color-interpolation-filters="sRGB">
<feFlood flood-opacity="0" result="BackgroundImageFix"/>
<feColorMatrix in="SourceAlpha" type="matrix" values="0 0 0 0 0 0 0 0 0 0 0 0 0 0 0 0 0 0 127 0" result="hardAlpha"/>
<feOffset dy="4"/>
<feGaussianBlur stdDeviation="2"/>
<feComposite in2="hardAlpha" operator="out"/>
<feColorMatrix type="matrix" values="0 0 0 0 0 0 0 0 0 0 0 0 0 0 0 0 0 0 0.3 0"/>
<feBlend mode="normal" in2="BackgroundImageFix" result="effect1_dropShadow_2002_7542"/>
<feBlend mode="normal" in="SourceGraphic" in2="effect1_dropShadow_2002_7542" result="shape"/>
</filter>
<clipPath id="clip0_2002_7542">
<rect width="250" height="250" fill="white"/>
</clipPath>
<clipPath id="clip1_2002_7542">
<rect width="73.8704" height="73.8704" fill="white" transform="translate(215.199 58) rotate(13.4634)"/>
</clipPath>
<clipPath id="clip2_2002_7542">
<rect width="73.8704" height="73.8704" fill="white" transform="translate(42.6118 205.417) rotate(13.46)"/>
</clipPath>
<clipPath id="clip3_2002_7542">
<rect width="73.8704" height="73.8704" fill="white" transform="translate(-35.8013 58) rotate(13.4634)"/>
</clipPath>
<clipPath id="clip4_2002_7542">
<rect width="73.8704" height="73.8704" fill="white" transform="translate(42.6118 -44.583) rotate(13.46)"/>
</clipPath>
</defs>
</svg>
